<svg xmlns="http://www.w3.org/2000/svg" viewBox="0 0 50 50"><path fill="#E7E7E7" d="M25,49.794c-0.947,0-1.854-0.224-2.551-0.625L5.345,39.293c-1.454-0.839-2.551-2.738-2.551-4.419V15.125c0-1.679,1.097-3.578,2.551-4.418l17.104-9.875C23.146,0.428,24.053,0.206,25,0.206s1.854,0.222,2.552,0.625l17.104,9.875c1.453,0.84,2.551,2.74,2.551,4.418v19.749c0,1.681-1.098,3.58-2.551,4.419l-17.104,9.876C26.854,49.57,25.947,49.794,25,49.794zM25,2.492c-0.545,0-1.058,0.116-1.408,0.319L6.488,12.687c-0.737,0.425-1.409,1.587-1.409,2.438v19.749c0,0.852,0.671,2.015,1.409,2.44l17.103,9.875c0.35,0.202,0.863,0.318,1.408,0.318s1.058-0.116,1.407-0.318l17.105-9.875c0.737-0.426,1.408-1.589,1.408-2.44V15.125c0-0.851-0.671-2.014-1.408-2.438L26.408,2.811C26.058,2.608,25.545,2.492,25,2.492z"></path></svg>